<?xml version="1.0" encoding="iso-8859-1"?>
<!-- Generator: Adobe Illustrator 18.0.0, SVG Export Plug-In . SVG Version: 6.00 Build 0)  -->
<!DOCTYPE svg PUBLIC "-//W3C//DTD SVG 1.1//EN" "http://www.w3.org/Graphics/SVG/1.1/DTD/svg11.dtd">
<svg version="1.1" id="Capa_1" xmlns="http://www.w3.org/2000/svg" xmlns:xlink="http://www.w3.org/1999/xlink" x="0px" y="0px"
	 viewBox="0 0 495.658 495.658" style="enable-background:new 0 0 495.658 495.658;" xml:space="preserve">
<path id="XMLID_180_" d="M495.658,289.979c0-21.468-17.407-38.875-38.875-38.875h-12.755c13.345-6.16,22.656-19.571,22.656-35.231
	c0-21.469-17.406-38.875-38.875-38.875l-122.54,11.17c22.408-49.514,33.172-89.689,37.026-141.947
	c1.156-15.698-7.965-30.997-23.416-36.93c-18.886-7.242-40.08,2.192-47.331,21.089c-36.379,95.394-59.992,147.471-117.594,179.105
	l-0.075,0.038v-28.472c0-10.734-8.702-19.438-19.438-19.438H19.438C8.702,161.613,0,170.317,0,181.051v288.318
	c0,10.734,8.702,19.436,19.438,19.436h115.003c10.735,0,19.438-8.702,19.438-19.436v-31.52l8.901,4.897
	c32.878,18.042,69.31,33.503,106.812,33.503c5.767,0,148.316,0,148.316,0c21.469,0,38.875-17.406,38.875-38.875
	c0-15.052-8.647-27.95-21.154-34.415h1.716c21.469,0,38.875-17.407,38.875-38.875c0-15.66-9.312-29.069-22.653-35.229h3.215
	C478.251,328.854,495.658,311.448,495.658,289.979z M115.003,449.931H38.875V200.489h76.127V449.931z"/>
<g>
</g>
<g>
</g>
<g>
</g>
<g>
</g>
<g>
</g>
<g>
</g>
<g>
</g>
<g>
</g>
<g>
</g>
<g>
</g>
<g>
</g>
<g>
</g>
<g>
</g>
<g>
</g>
<g>
</g>
</svg>
