<?xml version="1.0" encoding="iso-8859-1"?>
<!-- Generator: Adobe Illustrator 18.1.1, SVG Export Plug-In . SVG Version: 6.00 Build 0)  -->
<svg version="1.1" id="Capa_1" xmlns="http://www.w3.org/2000/svg" xmlns:xlink="http://www.w3.org/1999/xlink" x="0px" y="0px"
	 viewBox="0 0 19.899 19.899" style="enable-background:new 0 0 19.899 19.899;" xml:space="preserve">
<g>
	<path style="fill:#010002;" d="M10.506,13.558c0.606-0.188,1.359-0.289,1.95-0.335v3.833c0,0.893-0.767,1.616-1.707,1.616H1.707
		C0.764,18.672,0,17.949,0,17.056V2.843c0-0.891,0.764-1.616,1.707-1.616h9.042c0.94,0,1.707,0.725,1.707,1.616V6.86
		c-0.29,0.083-0.687,0.199-1.071,0.327c-0.182,0.062-0.359,0.127-0.529,0.196c-0.122,0.05-0.232,0.106-0.35,0.159V4.654
		c0-0.7-0.525-1.268-1.171-1.268H3.122c-0.649,0-1.172,0.568-1.172,1.268v10.591c0,0.7,0.524,1.268,1.172,1.268h6.213
		c0.647,0,1.171-0.568,1.171-1.268C10.506,15.245,10.506,13.558,10.506,13.558z M19.697,9.468l-6.072-4.553
		c-0.269-0.198-0.483-0.09-0.483,0.241L13.14,7.275c0,0.331-0.266,0.656-0.591,0.724c0,0-0.742,0.195-1.426,0.425
		c-4.071,1.353-4.522,5.195-4.522,5.195c-0.132,0.302-0.026,0.383,0.231,0.177c0,0,1.169-0.928,2.209-1.348
		c1.376-0.558,3.493-0.564,3.493-0.564c0.331-0.002,0.602,0.269,0.602,0.6l-0.002,2.264c0,0.332,0.213,0.436,0.475,0.229
		l6.099-4.774C19.967,9.998,19.963,9.667,19.697,9.468z"/>
</g>
<g>
</g>
<g>
</g>
<g>
</g>
<g>
</g>
<g>
</g>
<g>
</g>
<g>
</g>
<g>
</g>
<g>
</g>
<g>
</g>
<g>
</g>
<g>
</g>
<g>
</g>
<g>
</g>
<g>
</g>
</svg>
